<?xml version="1.0" encoding="UTF-8" standalone="no"?>
<svg
   width="16"
   height="16"
   fill="currentColor"
   class="bi bi-exclamation-octagon"
   viewBox="0 0 16 16"
   version="1.1"
   id="svg2"
   sodipodi:docname="exclamation-octagon-red.svg"
   inkscape:version="1.3 (0e150ed6c4, 2023-07-21)"
   xmlns:inkscape="http://www.inkscape.org/namespaces/inkscape"
   xmlns:sodipodi="http://sodipodi.sourceforge.net/DTD/sodipodi-0.dtd"
   xmlns="http://www.w3.org/2000/svg"
   xmlns:svg="http://www.w3.org/2000/svg">
  <defs
     id="defs2" />
  <sodipodi:namedview
     id="namedview2"
     pagecolor="#ffffff"
     bordercolor="#000000"
     borderopacity="0.25"
     inkscape:showpageshadow="2"
     inkscape:pageopacity="0.0"
     inkscape:pagecheckerboard="0"
     inkscape:deskcolor="#d1d1d1"
     inkscape:zoom="31.3125"
     inkscape:cx="8"
     inkscape:cy="8"
     inkscape:window-width="1366"
     inkscape:window-height="697"
     inkscape:window-x="1272"
     inkscape:window-y="-8"
     inkscape:window-maximized="1"
     inkscape:current-layer="svg2" />
  <path
     d="M 4.54,0.146 A 0.5,0.5 0 0 1 4.893,0 h 6.214 A 0.5,0.5 0 0 1 11.46,0.146 L 15.854,4.54 A 0.5,0.5 0 0 1 16,4.893 v 6.214 A 0.5,0.5 0 0 1 15.854,11.46 L 11.46,15.854 A 0.5,0.5 0 0 1 11.107,16 H 4.893 A 0.5,0.5 0 0 1 4.54,15.854 L 0.146,11.46 A 0.5,0.5 0 0 1 0,11.107 V 4.893 A 0.5,0.5 0 0 1 0.146,4.54 Z M 5.1,1 1,5.1 v 5.8 L 5.1,15 h 5.8 L 15,10.9 V 5.1 L 10.9,1 Z"
     id="path1"
     style="fill:#ff0000" />
  <path
     d="m 7.002,11 a 1,1 0 1 1 2,0 1,1 0 0 1 -2,0 z M 7.1,4.995 a 0.905,0.905 0 1 1 1.8,0 L 8.55,8.502 a 0.552,0.552 0 0 1 -1.1,0 z"
     id="path2"
     style="fill:#ff0000" />
</svg>
