<?xml version="1.0" encoding="UTF-8" standalone="no"?>
<svg
   width="16"
   height="16"
   fill="currentColor"
   class="bi bi-eye"
   viewBox="0 0 16 16"
   version="1.1"
   id="svg2"
   sodipodi:docname="eye-red.svg"
   inkscape:version="1.3 (0e150ed6c4, 2023-07-21)"
   xmlns:inkscape="http://www.inkscape.org/namespaces/inkscape"
   xmlns:sodipodi="http://sodipodi.sourceforge.net/DTD/sodipodi-0.dtd"
   xmlns="http://www.w3.org/2000/svg"
   xmlns:svg="http://www.w3.org/2000/svg">
  <defs
     id="defs2" />
  <sodipodi:namedview
     id="namedview2"
     pagecolor="#ffffff"
     bordercolor="#000000"
     borderopacity="0.25"
     inkscape:showpageshadow="2"
     inkscape:pageopacity="0.0"
     inkscape:pagecheckerboard="0"
     inkscape:deskcolor="#d1d1d1"
     inkscape:zoom="31.3125"
     inkscape:cx="8"
     inkscape:cy="8"
     inkscape:window-width="1366"
     inkscape:window-height="697"
     inkscape:window-x="1272"
     inkscape:window-y="-8"
     inkscape:window-maximized="1"
     inkscape:current-layer="svg2" />
  <path
     d="M 16,8 C 16,8 13,2.5 8,2.5 3,2.5 0,8 0,8 0,8 3,13.5 8,13.5 13,13.5 16,8 16,8 Z M 1.173,8 A 13.133,13.133 0 0 1 2.833,5.957 C 4.12,4.668 5.88,3.5 8,3.5 c 2.12,0 3.879,1.168 5.168,2.457 A 13.133,13.133 0 0 1 14.828,8 c -0.058,0.087 -0.122,0.183 -0.195,0.288 -0.335,0.48 -0.83,1.12 -1.465,1.755 C 11.879,11.332 10.119,12.5 8,12.5 5.88,12.5 4.121,11.332 2.832,10.043 A 13.134,13.134 0 0 1 1.172,8 Z"
     id="path1"
     style="fill:#ff0000" />
  <path
     d="m 8,5.5 a 2.5,2.5 0 1 0 0,5 2.5,2.5 0 0 0 0,-5 z M 4.5,8 a 3.5,3.5 0 1 1 7,0 3.5,3.5 0 0 1 -7,0 z"
     id="path2"
     style="fill:#ff0000" />
</svg>
