<?xml version="1.0" encoding="UTF-8" standalone="no"?>
<svg
   width="16"
   height="16"
   fill="currentColor"
   class="bi bi-eye-slash"
   viewBox="0 0 16 16"
   version="1.1"
   id="svg3"
   sodipodi:docname="eye-slash-green.svg"
   inkscape:version="1.3 (0e150ed6c4, 2023-07-21)"
   xmlns:inkscape="http://www.inkscape.org/namespaces/inkscape"
   xmlns:sodipodi="http://sodipodi.sourceforge.net/DTD/sodipodi-0.dtd"
   xmlns="http://www.w3.org/2000/svg"
   xmlns:svg="http://www.w3.org/2000/svg">
  <defs
     id="defs3" />
  <sodipodi:namedview
     id="namedview3"
     pagecolor="#ffffff"
     bordercolor="#000000"
     borderopacity="0.25"
     inkscape:showpageshadow="2"
     inkscape:pageopacity="0.0"
     inkscape:pagecheckerboard="0"
     inkscape:deskcolor="#d1d1d1"
     inkscape:zoom="31.3125"
     inkscape:cx="8"
     inkscape:cy="8"
     inkscape:window-width="1366"
     inkscape:window-height="697"
     inkscape:window-x="1272"
     inkscape:window-y="-8"
     inkscape:window-maximized="1"
     inkscape:current-layer="svg3" />
  <path
     d="M 13.359,11.238 C 15.06,9.72 16,8 16,8 16,8 13,2.5 8,2.5 A 7.028,7.028 0 0 0 5.21,3.088 L 5.98,3.859 A 5.944,5.944 0 0 1 8,3.5 c 2.12,0 3.879,1.168 5.168,2.457 A 13.134,13.134 0 0 1 14.828,8 c -0.058,0.087 -0.122,0.183 -0.195,0.288 -0.335,0.48 -0.83,1.12 -1.465,1.755 -0.165,0.165 -0.337,0.328 -0.517,0.486 z"
     id="path1"
     style="fill:#008000" />
  <path
     d="M 11.297,9.176 A 3.5,3.5 0 0 0 6.823,4.702 l 0.823,0.823 a 2.5,2.5 0 0 1 2.829,2.829 z m -2.943,1.299 0.822,0.822 A 3.5,3.5 0 0 1 4.702,6.823 l 0.823,0.823 a 2.5,2.5 0 0 0 2.829,2.829 z"
     id="path2"
     style="fill:#00ff00" />
  <path
     d="M 3.35,5.47 C 3.17,5.63 2.997,5.792 2.832,5.957 A 13.134,13.134 0 0 0 1.172,8 l 0.195,0.288 c 0.335,0.48 0.83,1.12 1.465,1.755 C 4.121,11.332 5.881,12.5 8,12.5 c 0.716,0 1.39,-0.133 2.02,-0.36 l 0.77,0.772 A 7.029,7.029 0 0 1 8,13.5 C 3,13.5 0,8 0,8 0,8 0.939,6.279 2.641,4.762 l 0.708,0.709 z m 10.296,8.884 -12,-12 0.708,-0.708 12,12 z"
     id="path3"
     style="fill:#008000" />
</svg>
