<?xml version="1.0" encoding="UTF-8" ?>
<!DOCTYPE svg PUBLIC "-//W3C//DTD SVG 1.1//EN" "http://www.w3.org/Graphics/SVG/1.1/DTD/svg11.dtd">
<svg width="424pt" height="429pt" viewBox="0 0 424 429" version="1.1" xmlns="http://www.w3.org/2000/svg">
<g id="#ffffffff">
</g>
<g id="#eb4335ff">
<path fill="#eb4335" opacity="1.00" d=" M 204.49 19.64 C 236.17 17.79 268.46 23.98 296.96 38.05 C 313.76 46.00 329.05 56.84 342.78 69.31 C 337.28 75.32 330.77 80.27 325.25 86.25 C 315.23 96.23 305.11 106.11 295.04 116.05 C 292.78 118.09 290.72 120.53 287.99 121.94 C 272.95 108.17 253.98 98.62 233.84 95.19 C 214.40 92.13 194.10 93.69 175.56 100.44 C 142.06 112.14 114.70 140.06 103.77 173.84 C 83.16 157.73 62.44 141.76 41.80 125.69 C 55.18 97.94 76.04 74.00 100.91 55.92 C 130.95 34.15 167.41 21.23 204.49 19.64 Z" />
</g>
<g id="#fbbc05ff">
<path fill="#fbbc05" opacity="1.00" d=" M 21.19 209.99 C 21.67 180.85 28.46 151.67 41.80 125.69 C 62.44 141.76 83.16 157.73 103.77 173.84 C 100.00 186.54 97.43 199.69 97.82 212.99 C 97.51 225.73 100.23 238.32 104.08 250.41 C 83.11 266.07 62.69 282.47 41.85 298.31 C 27.96 271.12 20.99 240.50 21.19 209.99 Z" />
</g>
<g id="#4285f4ff">
<path fill="#4285f4" opacity="1.00" d=" M 214.01 177.01 C 274.29 177.02 334.57 176.93 394.85 177.06 C 396.37 185.27 397.85 193.52 398.23 201.88 C 399.81 213.23 398.54 224.69 397.94 236.06 C 396.15 255.78 392.05 275.38 384.75 293.82 C 375.33 318.09 360.49 340.32 341.37 358.03 C 321.40 342.09 300.99 326.72 280.90 310.93 C 288.12 306.33 293.99 299.98 299.75 293.72 C 310.35 280.67 318.07 264.83 320.14 248.05 C 284.77 247.92 249.39 248.05 214.01 247.99 C 213.99 224.33 213.99 200.67 214.01 177.01 Z" />
</g>
<g id="#34a853ff">
<path fill="#34a853" opacity="1.00" d=" M 41.85 298.31 C 62.69 282.47 83.11 266.07 104.08 250.41 C 109.15 264.37 116.28 277.63 125.87 289.03 C 138.12 303.31 153.75 314.78 171.25 321.78 C 189.55 329.51 209.82 331.40 229.47 329.63 C 247.82 327.77 265.55 321.10 280.90 310.93 C 300.99 326.72 321.40 342.09 341.37 358.03 C 314.32 383.30 278.60 398.38 242.03 402.82 C 229.59 404.21 217.02 405.30 204.50 404.35 C 161.23 402.50 118.83 385.20 86.47 356.44 C 67.99 340.23 52.75 320.34 41.85 298.31 Z" />
</g>
</svg>
