<?xml version="1.0" encoding="UTF-8" standalone="no"?>
<svg
   width="564pt"
   height="633pt"
   viewBox="0 0 564 633"
   version="1.1"
   id="svg10"
   sodipodi:docname="logo-sign-up.svg"
   inkscape:version="1.3 (0e150ed6c4, 2023-07-21)"
   xmlns:inkscape="http://www.inkscape.org/namespaces/inkscape"
   xmlns:sodipodi="http://sodipodi.sourceforge.net/DTD/sodipodi-0.dtd"
   xmlns="http://www.w3.org/2000/svg"
   xmlns:svg="http://www.w3.org/2000/svg">
  <defs
     id="defs10" />
  <sodipodi:namedview
     id="namedview10"
     pagecolor="#ffffff"
     bordercolor="#000000"
     borderopacity="0.25"
     inkscape:showpageshadow="2"
     inkscape:pageopacity="0.0"
     inkscape:pagecheckerboard="0"
     inkscape:deskcolor="#d1d1d1"
     inkscape:document-units="pt"
     inkscape:zoom="0.89691943"
     inkscape:cx="376.28798"
     inkscape:cy="422"
     inkscape:window-width="1280"
     inkscape:window-height="953"
     inkscape:window-x="-8"
     inkscape:window-y="-8"
     inkscape:window-maximized="1"
     inkscape:current-layer="svg10" />
  <g
     id="#4800ffff">
    <path
       fill="#4800ff"
       opacity="1"
       d="m 258.44,14.49 c 13.49,-0.79 27.05,-0.52 40.57,-0.25 3.05,-0.27 5.94,1.09 8.99,1.04 26.98,2.46 53.44,9.75 78.26,20.56 13.37,6.19 26.23,13.4 38.68,21.27 5.88,4.81 12.7,8.4 18.24,13.63 4.88,4.12 10.15,7.79 14.34,12.67 7.15,5.84 12.94,13.07 19.59,19.43 12.98,15.77 25.26,32.27 34.46,50.55 2.57,5.67 5.83,11 8.14,16.78 6.06,13.35 10.31,27.44 14.48,41.48 3.3,14.58 6.09,29.37 6.78,44.32 0.23,2.34 0.96,4.63 0.83,7.01 -0.21,8 -0.19,16 -0.01,24 -1.04,8.07 -1.31,16.21 -2.62,24.25 -2.31,18.35 -7.3,36.22 -13.46,53.62 -6.19,16.78 -13.97,33.07 -23.76,48.08 -2.95,5.55 -7.24,10.2 -10.5,15.56 -5.04,6.55 -9.97,13.24 -15.71,19.19 -3.35,4.93 -8.11,8.59 -12.18,12.88 -3.21,3.14 -5.96,6.81 -9.79,9.26 -11.46,9.66 -22.99,19.41 -36.06,26.88 -5.94,3.88 -12.36,6.87 -18.4,10.56 -29.95,15.17 -62.87,24.6 -96.3,27.43 -5.73,-0.35 -11.29,1.49 -17.01,1.12 -5.36,-0.19 -10.78,0.53 -16.06,-0.69 -25.04,-0.45 -49.86,-5.62 -73.54,-13.66 -17.04,-6.03 -33.65,-13.35 -49.13,-22.73 -15.55,-9.33 -30,-20.46 -43.4,-32.63 C 98.4,460.27 92.52,454.84 86.93,449.13 84.64,445.14 80.68,442.57 78.2,438.73 44.69,397.28 23.91,345.37 20.91,292.1 c -1.16,-4.97 -0.52,-10.07 -0.55,-15.11 0.12,-5.29 -0.22,-10.58 -0.1,-15.87 1.43,-8.37 1.1,-16.92 2.79,-25.26 4.89,-36.21 18.62,-70.93 38.02,-101.8 8.01,-11.78 16.38,-23.4 26.16,-33.77 4.37,-5.9 10.08,-10.6 15.12,-15.91 4.84,-3.46 8.7,-8.04 13.49,-11.54 18.31,-15.22 38.96,-27.44 60.61,-37.28 25.94,-11.47 53.84,-18.11 81.99,-21.07 m 5.91,21.87 c -14.73,0.98 -29.35,3.67 -43.72,7.09 -37.86,10.18 -73.19,29.62 -102.03,56.12 -5.22,6.11 -11.93,10.87 -16.65,17.39 -9.67,10.54 -18.22,22.19 -25.35,34.63 -15.5,24.45 -25.11,52.23 -30.7,80.53 -0.91,7.19 -2.46,14.33 -2.24,21.61 -1.44,6.33 -0.88,12.84 -0.83,19.27 -0.96,28.54 4.55,57.06 14.15,83.89 4.37,10.69 8.3,21.67 14.54,31.46 9,17.55 20.87,33.47 34.03,48.08 5.35,4.97 10.32,10.33 15.52,15.44 3.56,2.43 6.43,5.68 9.99,8.12 5.86,5.64 13.04,9.56 19.47,14.47 6.5,4.3 13.48,7.8 20.06,11.96 7.95,2.72 14.85,7.85 22.96,10.16 13.65,5.77 28.13,9.11 42.5,12.53 20.01,3.49 40.44,5.49 60.75,3.65 4.17,-0.9 8.5,-0.08 12.65,-1.2 8.87,-0.88 17.54,-3.08 26.32,-4.58 7.43,-2.35 15.06,-4.06 22.39,-6.7 5.71,-2.37 11.62,-4.19 17.23,-6.8 11.97,-4.78 23.05,-11.45 34.14,-17.94 9.07,-5.8 17.45,-12.56 25.88,-19.23 4.67,-4.65 10.2,-8.34 14.53,-13.37 4.92,-4.13 8.16,-9.77 12.93,-14.03 24.5,-29.56 42.66,-64.7 50.87,-102.29 3.43,-16.64 6.18,-33.57 5.44,-50.61 -0.16,-7.16 0.78,-14.38 -0.68,-21.46 -1.21,-15.98 -4.62,-31.73 -8.77,-47.2 -4.12,-13.26 -8.76,-26.44 -15.33,-38.72 -10.04,-21.4 -24.28,-40.54 -39.93,-58.1 -5.18,-4.84 -9.71,-10.41 -15.58,-14.47 C 433.78,90.8 427.85,86.39 421.92,82.1 389.77,58.43 351.58,43.01 311.99,37.78 296.22,36.09 280.22,34.61 264.35,36.36 Z"
       id="path1"
       style="fill:#0000ff" />
    <path
       fill="#4800ff"
       opacity="1"
       d="m 251.42,154.55 c 12.98,-1.93 27.1,0.18 37.66,8.4 4.31,4.36 9.1,8.47 11.86,14.06 7.72,15.48 7.85,34.08 2.24,50.26 -2.8,7.51 -6.92,14.69 -12.6,20.39 -10.95,12.43 -30.32,17.14 -45.52,10.23 -3.81,-1.62 -7.12,-4.14 -10.57,-6.37 -5.59,-4.5 -9.46,-10.65 -13.32,-16.59 -4.1,-9.4 -7.52,-19.54 -6.76,-29.93 0.11,-3.25 -0.16,-6.5 -0.04,-9.75 1.19,-6.76 3.18,-13.46 6.38,-19.55 3.9,-6.2 9.25,-11.47 15.31,-15.54 4.71,-2.81 10.06,-4.34 15.36,-5.61 z"
       id="path2"
       style="fill:#0000ff" />
    <path
       fill="#4800ff"
       opacity="1"
       d="m 377.33,171.1 c 5.51,-0.18 11.02,-0.11 16.53,-0.06 -0.04,14.31 -0.05,28.63 0,42.95 14.34,0.05 28.69,-0.04 43.03,0.04 -0.03,5.31 -0.03,10.63 0,15.94 -14.36,0.07 -28.72,0 -43.08,0.04 0.06,14.31 -0.02,28.63 0.05,42.95 -5.51,0.05 -11.02,0.12 -16.53,-0.06 0.13,-14.3 0.08,-28.6 0.03,-42.9 -14.36,-0.06 -28.71,0.12 -43.07,-0.09 0.1,-5.27 0.1,-10.55 0,-15.82 14.35,-0.21 28.71,-0.03 43.06,-0.09 0.07,-14.3 0.1,-28.6 -0.02,-42.9 z"
       id="path3"
       style="fill:#0000ff" />
    <path
       fill="#4800ff"
       opacity="1"
       d="m 252.44,292.47 c 9.11,-1.15 18.18,0.5 27.28,0.95 15.24,1.9 30.56,5.87 43.58,14.28 8.49,5.28 15.47,12.8 20.57,21.37 6.08,11.76 8.26,25.37 6.82,38.47 -3.96,3.26 -8.44,5.86 -13.1,7.99 -18.85,10.74 -40.16,16.7 -61.63,19.21 -12.9,0.14 -25.94,1.09 -38.72,-1.15 -11.47,-2.24 -23.01,-4.64 -33.83,-9.13 -5.4,-1.53 -10.07,-4.73 -15.21,-6.86 -6.07,-3.11 -12.13,-6.28 -17.79,-10.09 -1.1,-2.64 0.17,-5.72 -0.01,-8.53 -0.7,-12.93 3.24,-26.14 11.1,-36.46 3.29,-3.71 6.41,-7.57 10.37,-10.62 12.71,-10.43 28.96,-15.43 45,-17.86 5.1,-1.28 10.44,-0.45 15.57,-1.57 z"
       id="path4"
       style="fill:#0000ff" />
    <path
       fill="#4800ff"
       opacity="1"
       d="m 135.71,560.64 c 6.3,-1.76 12.67,0.18 18.99,0.53 0.27,0.29 0.8,0.88 1.07,1.18 0.67,4.52 1.56,9.03 1.25,13.63 -5.08,-2.3 -11.41,-4.58 -16.7,-1.69 -1.3,0.96 -3.19,2.54 -2,4.32 1.98,4.84 7.09,6.96 10.45,10.62 2.79,2.91 6.18,5.49 7.6,9.42 2.41,7.06 -0.39,16 -7.36,19.36 -8.9,5.07 -19.55,2.77 -29,0.82 0.41,-4.73 -0.65,-9.34 -1.12,-14 6.72,1.99 14.78,5.72 21.2,1.01 -0.07,-1.49 -0.03,-2.98 -0.27,-4.44 -5.01,-5.41 -10.59,-10.29 -15.51,-15.78 -2.14,-3.53 -4.23,-7.9 -2.79,-12.06 1,-6.9 7.5,-12.05 14.19,-12.92 z"
       id="path5"
       style="fill:#0000ff;stroke:#0000ff" />
    <path
       fill="#4800ff"
       opacity="1"
       d="m 209.99,562.97 c 11.22,-4.64 23.56,-2.96 35.12,-0.74 0.63,4.62 1.16,9.26 0.88,13.94 -8.51,-3.13 -18.44,-5.08 -27.02,-1.19 -5.68,2.34 -8.99,8.24 -9.93,14.07 -0.05,4.78 -0.9,10.41 2.68,14.22 4.43,5.84 12.98,5.75 19.29,3.55 -0.02,-2.94 -0.02,-5.88 -0.01,-8.81 -2.33,-0.01 -4.66,-0.02 -6.99,-0.02 -0.02,-4 -0.02,-7.99 0,-11.99 7.96,-0.01 15.91,0.01 23.87,-0.01 -1.94,6.61 0.07,13.6 -1.5,20.27 -0.69,4.15 -0.3,8.38 -0.38,12.57 -13.17,1.99 -27.1,4.16 -39.91,-0.91 -8.1,-2.78 -12.32,-11.22 -13.93,-19.1 -0.31,-4.21 -0.29,-8.46 -0.01,-12.66 1.05,-4.5 2.85,-8.81 5.22,-12.78 3.51,-4.19 7.52,-8.2 12.62,-10.41 z"
       id="path6"
       style="fill:#0000ff" />
    <path
       fill="#4800ff"
       opacity="1"
       d="m 167.89,561.01 c 5.7,-0.03 11.4,-0.01 17.1,-0.01 -0.02,2.94 0.19,5.89 -0.16,8.83 -2.05,8.93 0.41,18.23 -1.74,27.16 -0.25,7.66 0,15.34 -0.09,23.01 -6.03,0 -12.06,0 -18.09,0 1.93,-5.78 0.61,-11.9 1.27,-17.82 1.82,-8.17 0.09,-16.6 1.11,-24.84 0.99,-5.39 0.5,-10.89 0.6,-16.33 z"
       id="path7"
       style="fill:#0000ff" />
    <path
       fill="#4800ff"
       opacity="1"
       d="m 259,561 c 6.58,0 13.16,-0.03 19.75,0.03 5.94,12.95 13.39,25.14 19.16,38.18 -0.36,-5.47 1.32,-10.76 1.11,-16.21 -0.04,-7.33 -0.02,-14.67 -0.02,-22 5.39,0.01 10.77,-0.05 16.16,0.04 -0.19,2.04 -0.64,4.04 -1,6.06 -0.6,5.03 0.52,10.2 -0.85,15.16 -0.86,5.81 0.16,11.73 -0.5,17.56 -1.56,6.61 -0.51,13.46 -0.81,20.18 -6.62,0.01 -13.25,-0.02 -19.86,0.01 -2.96,-5.2 -5.26,-10.75 -8.27,-15.92 -3.88,-6.33 -6.71,-13.23 -10.24,-19.74 -0.34,-0.12 -1.03,-0.35 -1.37,-0.47 -0.71,12.04 0.48,24.15 -1.32,36.11 -4.99,0.02 -9.97,0.01 -14.95,0.01 -0.06,-3.1 -0.13,-6.23 0.78,-9.23 0.82,-6.26 -0.64,-12.7 1.07,-18.86 0.55,-6.56 -0.26,-13.18 0.36,-19.73 0.96,-3.65 0.85,-7.44 0.8,-11.18 z"
       id="path8"
       style="fill:#0000ff" />
    <path
       fill="#4800ff"
       opacity="1"
       d="m 345.01,561.03 c 5.62,-0.07 11.24,-0.02 16.87,-0.04 -1.49,4.86 -0.59,9.98 -0.96,14.96 -1.68,7.89 -0.67,16.02 -0.91,24.03 0.45,6.64 9,9.73 14.21,6.3 3.64,-2.91 5.15,-7.68 4.89,-12.21 1.33,-5.56 0.64,-11.27 1.06,-16.91 1.14,-5.32 0.81,-10.77 0.83,-16.16 5.76,-0.01 11.53,0 17.3,0 -0.72,6.01 0.38,12.16 -1.06,18.1 -0.7,5.36 0.33,10.84 -0.76,16.18 -0.86,4.68 0.28,9.72 -2.15,14.06 -3.06,7.33 -11.47,10.14 -18.72,11.3 -9.44,1.23 -19.75,0.18 -27.68,-5.5 -2.61,-1.59 -3.88,-4.55 -4.82,-7.3 -0.63,-6.58 -0.02,-13.2 -0.03,-19.79 2.12,-8.88 -0.31,-18.14 1.93,-27.02 z"
       id="path9"
       style="fill:#0000ff" />
    <path
       fill="#4800ff"
       opacity="1"
       d="m 407,561 c 10.01,0 20.01,-0.01 30.01,0 7.08,0.07 13.46,5.92 13.97,13.02 0.02,4.46 0.66,9.22 -1.61,13.3 -3.23,8.71 -13.76,11.44 -22.15,10.6 -2.24,-3.41 -2.13,-7.99 -3.41,-11.86 3.17,-0.15 6.88,0.57 9.44,-1.81 2.06,-2.16 1.82,-5.28 1.78,-8.03 -3.35,-3.84 -8.6,-3.66 -13.02,-2.09 -0.27,7.95 0.65,15.99 -0.79,23.86 -0.46,7.32 -0.11,14.67 -0.22,22.01 -5.37,-0.01 -10.74,0.03 -16.1,-0.03 0.08,-1.55 0.12,-3.1 0.42,-4.61 1.7,-7.05 -0.42,-14.44 1.54,-21.46 0.35,-10.95 0.02,-21.93 0.14,-32.9 z"
       id="path10"
       style="fill:#0000ff" />
  </g>
</svg>
