<?xml version="1.0" encoding="UTF-8" standalone="no"?>
<svg
   width="228pt"
   height="221pt"
   viewBox="0 0 228 221"
   version="1.1"
   id="svg38"
   sodipodi:docname="logo-recup-passw.svg"
   inkscape:version="1.3 (0e150ed6c4, 2023-07-21)"
   xmlns:inkscape="http://www.inkscape.org/namespaces/inkscape"
   xmlns:sodipodi="http://sodipodi.sourceforge.net/DTD/sodipodi-0.dtd"
   xmlns="http://www.w3.org/2000/svg"
   xmlns:svg="http://www.w3.org/2000/svg">
  <defs
     id="defs38" />
  <sodipodi:namedview
     id="namedview38"
     pagecolor="#ffffff"
     bordercolor="#000000"
     borderopacity="0.25"
     inkscape:showpageshadow="2"
     inkscape:pageopacity="0.0"
     inkscape:pagecheckerboard="0"
     inkscape:deskcolor="#d1d1d1"
     inkscape:document-units="pt"
     inkscape:zoom="1.788701"
     inkscape:cx="182.5347"
     inkscape:cy="239.55932"
     inkscape:window-width="1280"
     inkscape:window-height="953"
     inkscape:window-x="-8"
     inkscape:window-y="-8"
     inkscape:window-maximized="1"
     inkscape:current-layer="svg38" />
  <g
     id="#ffffffff">
    <path
       fill="#ffffff"
       opacity="1.00"
       d=" M 116.74 67.82 C 118.60 65.03 122.12 64.42 125.06 63.38 C 128.36 68.78 126.32 75.32 127.06 81.27 C 123.05 81.05 119.04 80.99 115.03 80.95 C 115.13 76.59 114.05 71.63 116.74 67.82 Z"
       id="path1" />
    <path
       fill="#ffffff"
       opacity="1.00"
       d=" M 128.82 65.35 C 133.73 69.10 132.66 75.60 132.81 81.01 C 132.02 81.01 130.45 81.01 129.67 81.01 C 129.71 76.57 129.73 72.11 129.11 67.70 C 129.04 67.12 128.89 65.94 128.82 65.35 Z"
       id="path2" />
    <path
       fill="#ffffff"
       opacity="1.00"
       d=" M 95.80 83.59 C 99.16 83.56 102.52 83.48 105.86 83.88 C 103.70 84.49 101.53 85.04 99.34 85.51 C 99.23 96.99 99.51 108.46 99.23 119.94 C 98.36 120.15 96.62 120.57 95.76 120.78 C 95.88 108.38 95.79 95.99 95.80 83.59 Z"
       id="path3" />
    <path
       fill="#ffffff"
       opacity="1.00"
       d=" M 114.05 83.90 C 120.64 83.38 127.31 83.40 133.90 83.89 C 127.52 85.74 120.42 85.84 114.05 83.90 Z"
       id="path4" />
    <path
       fill="#ffffff"
       opacity="1.00"
       d=" M 14.31 186.05 C 16.38 186.09 19.94 185.82 19.77 188.85 C 19.78 191.62 16.31 191.49 14.34 191.76 C 14.32 189.85 14.31 187.95 14.31 186.05 Z"
       id="path5" />
    <path
       fill="#ffffff"
       opacity="1.00"
       d=" M 60.96 191.82 C 62.39 190.96 63.99 189.27 65.75 190.39 C 67.59 192.47 67.69 196.49 65.51 198.35 C 63.88 199.63 62.33 197.75 60.97 196.99 C 60.98 195.26 60.98 193.54 60.96 191.82 Z"
       id="path6" />
    <path
       fill="#ffffff"
       opacity="1.00"
       d=" M 72.47 193.37 C 73.15 191.91 73.89 189.55 76.00 189.95 C 78.05 189.55 78.49 192.06 79.36 193.28 C 77.06 193.38 74.76 193.40 72.47 193.37 Z"
       id="path7" />
    <path
       fill="#ffffff"
       opacity="1.00"
       d=" M 131.32 190.32 C 135.40 188.27 137.62 193.86 135.89 196.90 C 135.02 199.48 130.84 199.47 129.92 196.94 C 129.02 194.81 129.14 191.63 131.32 190.32 Z"
       id="path8" />
    <path
       fill="#ffffff"
       opacity="1.00"
       d=" M 190.18 193.33 C 190.85 190.89 192.80 189.68 195.27 189.72 C 195.85 190.93 196.42 192.14 196.96 193.37 C 194.70 193.41 192.44 193.41 190.18 193.33 Z"
       id="path9" />
    <path
       fill="#ffffff"
       opacity="1.00"
       d=" M 171.16 195.18 C 172.56 194.95 173.98 194.79 175.41 194.70 C 175.41 196.70 174.46 199.18 172.04 198.90 C 169.96 199.16 169.37 196.00 171.16 195.18 Z"
       id="path10" />
    <path
       fill="#ffffff"
       opacity="1.00"
       d=" M 214.73 197.03 C 214.66 194.30 218.33 195.06 220.12 194.77 C 219.67 195.97 219.98 197.79 218.51 198.36 C 217.31 199.53 214.43 198.96 214.73 197.03 Z"
       id="path11" />
  </g>
  <g
     id="#2f6aafff">
    <path
       fill="#2f6aaf"
       opacity="1"
       d="m 99.01,23.04 c 18.5,-4.78 38.9,-1.5 54.99,8.79 11.17,7.07 20.24,17.37 25.86,29.33 8.31,17.23 8.99,37.94 1.92,55.71 -9.73,25.47 -35.4,43.91 -62.72,44.57 -19.22,0.87 -38.74,-6.56 -52.22,-20.34 -1.61,-1.24 -1.45,-4.08 0.55,-4.83 1.76,-1.09 3.31,0.77 4.52,1.82 13.12,12.68 31.9,19.23 50.05,17.43 16.13,-1.29 31.6,-9.08 42.35,-21.14 8.4,-9.29 14.1,-21.05 15.9,-33.46 3.1,-18.9 -3.1,-38.99 -16.02,-53.08 -7.35,-8.13 -16.78,-14.37 -27.18,-17.87 -16.34,-5.66 -34.97,-4.26 -50.29,3.75 -16.11,8.25 -28.47,23.57 -32.94,41.12 -1.26,5.84 -2.86,12.05 -1.64,17.97 0.44,0.08 1.3,0.23 1.74,0.3 6.71,-5.29 12.73,-11.47 19.25,-17.02 1.05,-1.05 2.58,-1.1 3.93,-1.46 0.63,1.55 2.32,3.45 0.58,4.93 -9.32,8.71 -18.96,17.11 -28.42,25.68 -1.36,1.65 -4.09,1.6 -5.05,-0.43 C 37.36,94.59 30.52,84.38 23.81,74.09 c -1.1,-1.29 -0.05,-2.89 0.13,-4.3 1.4,0.23 3.47,-0.6 4.33,0.96 5,7.05 9.49,14.47 14.5,21.51 0.92,1.65 3.42,0.55 3.12,-1.24 C 46.03,77.67 49.82,64.34 57.14,53.15 66.7,38.38 81.88,27.24 99.01,23.04 Z"
       id="path12"
       style="fill:#ff0000;stroke:#0000ff" />
  </g>
  <g
     id="#2163a6ff">
    <path
       fill="#2163a6"
       opacity="1"
       d="m 99.32,65.83 c 1.22,-8.15 8.41,-14.87 16.59,-15.68 6.35,-0.84 12.68,2.05 16.93,6.69 5.54,6.99 4.18,16.26 4.22,24.54 1.89,-0.02 3.78,-0.05 5.67,-0.07 -0.06,1.26 -0.11,2.53 -0.14,3.8 -0.1,12.63 -0.07,25.25 -0.01,37.88 -14.47,0.02 -28.93,0.01 -43.39,0.01 -1.87,0 -3.74,0 -5.6,0 0.01,-13.87 0.07,-27.74 -0.03,-41.61 1.81,-0.02 3.62,-0.02 5.44,-0.04 0.12,-5.17 -0.32,-10.37 0.32,-15.52 m 4.97,-6.36 c -4.72,6.33 -2.62,14.62 -3.02,21.92 1.83,-0.02 3.66,-0.05 5.49,-0.08 0.43,-6.78 -1.64,-14.47 3.03,-20.24 3.59,-2.39 8.16,-4.18 12.38,-2.26 3.15,1.05 4.82,4.01 6.65,6.54 0.07,0.59 0.22,1.77 0.29,2.35 -0.12,4.62 -0.17,9.25 0,13.87 1.91,-0.08 3.82,-0.15 5.74,-0.21 -0.04,-5.17 0.38,-10.38 -0.32,-15.52 -1,-5.86 -5.51,-10.49 -10.85,-12.77 -7,-2.2 -15.25,0.22 -19.39,6.4 m 5,8.42 c -0.34,4.5 -0.06,9.01 -0.06,13.52 5.94,-0.16 11.89,0.31 17.83,-0.14 -0.74,-5.95 1.3,-12.49 -2,-17.89 -1.8,-1.36 -3.67,-2.92 -6.02,-3.11 -4.59,-0.54 -9.26,2.98 -9.75,7.62 M 95.8,83.59 c -0.01,12.4 0.08,24.79 -0.04,37.19 14.82,0.06 29.64,-0.15 44.46,0.08 0.29,-12.44 0.01,-24.88 0.14,-37.32 -2.15,0.05 -4.35,-0.17 -6.46,0.35 -6.59,-0.49 -13.26,-0.51 -19.85,0.01 -2.67,-0.6 -5.51,-0.53 -8.19,-0.02 -3.34,-0.4 -6.7,-0.32 -10.06,-0.29 z"
       id="path13"
       style="stroke:#ff0000" />
    <path
       fill="#2163a6"
       opacity="1.00"
       d=" M 117.26 107.22 C 118.75 106.07 120.31 108.69 118.83 109.65 C 117.34 110.77 115.80 108.19 117.26 107.22 Z"
       id="path14" />
  </g>
  <g
     id="#cee0f1ff">
    <path
       fill="#cee0f1"
       opacity="1.00"
       d=" M 117.40 93.48 C 120.29 92.70 122.91 96.58 120.99 98.94 C 119.58 101.52 115.26 100.75 114.66 97.95 C 113.83 96.00 115.46 93.81 117.40 93.48 Z"
       id="path15" />
  </g>
  <g
     id="#2866a8ff">
    <path
       fill="#2866a8"
       opacity="1.00"
       d=" M 113.48 93.42 C 116.08 89.75 122.51 90.88 123.58 95.30 C 124.86 98.46 122.30 101.36 119.71 102.80 C 119.10 103.80 118.44 104.79 117.42 105.42 C 117.22 104.73 116.83 103.37 116.63 102.69 C 112.86 101.54 110.75 96.59 113.48 93.42 M 117.40 93.48 C 115.46 93.81 113.83 96.00 114.66 97.95 C 115.26 100.75 119.58 101.52 120.99 98.94 C 122.91 96.58 120.29 92.70 117.40 93.48 Z"
       id="path16" />
  </g>
  <g
     id="#0d5ba5ff">
    <path
       fill="#0d5ba5"
       opacity="1.00"
       d=" M 117.22 112.20 C 118.84 111.66 119.40 112.20 118.90 113.84 C 117.27 114.39 116.72 113.84 117.22 112.20 Z"
       id="path17" />
  </g>
  <g
     id="#00417aff">
    <path
       fill="#00417a"
       opacity="1"
       d="m 201.76,187.5 c 0.15,-1.58 0.02,-3.87 2.24,-3.82 1.22,0.49 2.41,1.07 3.56,1.73 0.44,-0.54 1.32,-1.62 1.75,-2.16 0.88,1.59 -0.2,3.74 -2.09,3.63 -1.16,-0.57 -2.29,-1.2 -3.38,-1.88 -0.52,0.63 -1.56,1.88 -2.08,2.5 z"
       id="path18"
       style="stroke:#0000ff" />
    <path
       fill="#00417a"
       opacity="1"
       d="m 12.48,199.73 c -0.21,-5.07 -0.09,-10.15 0.02,-15.22 3.02,0.31 7.84,-0.97 9.09,2.81 0.95,2.13 -0.73,3.99 -2.32,5.14 1.56,2.46 2.74,5.13 3.68,7.88 -3.34,0.13 -3.11,-3.72 -4.57,-5.81 -0.72,-1.53 -2.67,-1.26 -4.04,-1.68 -0.03,2.55 -0.02,5.1 -0.09,7.65 -0.44,-0.19 -1.33,-0.58 -1.77,-0.77 m 1.83,-13.68 c 0,1.9 0.01,3.8 0.03,5.71 1.97,-0.27 5.44,-0.14 5.43,-2.91 0.17,-3.03 -3.39,-2.76 -5.46,-2.8 z"
       id="path19"
       style="fill:#0000ff" />
    <path
       fill="#00417a"
       opacity="1"
       d="m 117.22,198.82 c -3.59,-3.85 -3.16,-11.61 1.91,-14 2.53,-0.85 7.09,-0.86 7.19,2.71 -2.23,-1.03 -5.2,-2.6 -7.34,-0.56 -2.63,2.87 -2.87,8.3 0.27,10.88 2.3,1.82 5.01,0.01 7.29,-0.83 -0.82,4.07 -6.71,4.08 -9.32,1.8 z"
       id="path20"
       style="fill:#0000ff" />
    <path
       fill="#00417a"
       opacity="1"
       d="m 153.76,185.64 1.77,0.14 c 0,0.72 -0.01,2.16 -0.02,2.88 1.28,0.06 2.55,0.12 3.83,0.21 -0.91,1.19 -2.2,1.66 -3.84,1.4 0.12,2.75 -0.46,5.66 0.61,8.29 0.84,0.07 2.54,0.23 3.39,0.31 -1.33,1.69 -4.33,2.15 -5.47,0.06 -0.54,-2.86 -0.27,-5.78 -0.26,-8.66 -0.5,-0.07 -1.5,-0.2 -2,-0.26 l 0.02,-1.27 c 0.49,-0.03 1.46,-0.08 1.94,-0.11 0.01,-0.75 0.02,-2.24 0.03,-2.99 z"
       id="path21"
       style="fill:#0000ff" />
    <path
       fill="#00417a"
       opacity="1"
       d="m 46.64,188.73 c 0.45,-0.05 1.34,-0.16 1.79,-0.22 0.17,3.19 -0.49,6.55 0.69,9.6 1.79,1.63 3.36,-0.17 4.87,-1.16 -0.05,-2.75 -0.06,-5.5 -0.1,-8.24 0.72,0.01 1.43,0.01 2.15,0.03 -0.21,3.87 -0.15,7.76 -0.09,11.64 -0.61,-0.3 -1.82,-0.92 -2.42,-1.23 -1.9,1.22 -5.02,1.99 -6.34,-0.44 -1.05,-3.21 -0.42,-6.66 -0.55,-9.98 z"
       id="path22"
       style="fill:#0000ff" />
    <path
       fill="#00417a"
       opacity="1"
       d="m 59.07,204.2 c 0.2,-5.41 -0.89,-11.07 0.68,-16.3 0.5,0.72 1,1.44 1.49,2.16 1.54,-1.38 3.73,-2.18 5.67,-1.08 2.89,2.51 2.85,7.55 0.36,10.31 -1.81,1.86 -4.49,0.82 -6.34,-0.35 0.05,1.91 0.08,3.83 0.1,5.75 -0.49,-0.12 -1.47,-0.37 -1.96,-0.49 m 1.89,-12.38 c 0.02,1.72 0.02,3.44 0.01,5.17 1.36,0.76 2.91,2.64 4.54,1.36 2.18,-1.86 2.08,-5.88 0.24,-7.96 -1.76,-1.12 -3.36,0.57 -4.79,1.43 z"
       id="path23"
       style="fill:#0000ff" />
    <path
       fill="#00417a"
       opacity="1"
       d="m 83.46,189.01 c 0.17,-1.47 1.65,0.42 1.92,0.88 1.41,-1.33 3.72,-2.31 4.7,0.16 -2.06,-0.21 -3.67,0.77 -4.98,2.23 0.03,2.73 0.03,5.45 -0.03,8.18 -0.42,-0.18 -1.26,-0.53 -1.67,-0.71 -0.14,-3.58 -0.24,-7.18 0.06,-10.74 z"
       id="path24"
       style="fill:#0000ff" />
    <path
       fill="#00417a"
       opacity="1"
       d="m 104.55,189.89 c 1.45,-1.41 4.25,-2.33 4.77,0.38 -2.41,-0.57 -5.23,0.99 -4.86,3.71 -0.49,2.26 1.19,5.69 -1.67,6.75 -0.25,-4.25 -0.25,-8.51 0.03,-12.76 0.44,0.48 1.3,1.44 1.73,1.92 z"
       id="path25"
       style="fill:#0000ff" />
    <path
       fill="#00417a"
       opacity="1"
       d="m 142.88,189.86 c 1.8,-1.33 3.96,-1.59 6.09,-0.98 1.61,3.53 1.03,7.47 1.08,11.23 -0.48,0.01 -1.45,0.02 -1.93,0.03 -0.01,-2.99 0.3,-6.02 -0.32,-8.97 -1.33,-2.38 -3.89,-0.45 -5.26,0.78 0.06,2.6 0.21,5.21 0.02,7.81 -0.44,0.18 -1.3,0.54 -1.74,0.72 -0.08,-4.11 -0.08,-8.22 0.04,-12.32 0.5,0.43 1.51,1.28 2.02,1.7 z"
       id="path26"
       style="fill:#0000ff" />
    <path
       fill="#00417a"
       opacity="1"
       d="m 160.89,188.43 c 2.16,2.77 5.15,-1.92 6.94,1.42 -1.7,0.48 -3.95,0.34 -4.74,2.3 -0.5,2.69 -0.19,5.45 -0.21,8.17 -0.48,-0.11 -1.43,-0.34 -1.9,-0.46 -0.29,-3.8 -0.01,-7.62 -0.09,-11.43 z"
       id="path27"
       style="fill:#0000ff" />
    <path
       fill="#00417a"
       opacity="1"
       d="m 37.12,190.29 c 1.76,-2.65 7.21,-2.62 7.68,1.05 -1.75,-0.71 -4.29,-2.3 -5.88,-0.4 -1.28,1.81 -1.22,4.57 -0.25,6.51 1.41,2.6 4.29,0.5 6.33,-0.04 -1.01,3.33 -5.8,3.95 -7.87,1.29 -1.59,-2.48 -1.58,-5.93 -0.01,-8.41 z"
       id="path28"
       style="fill:#0000ff" />
    <path
       fill="#00417a"
       opacity="1"
       d="m 70.89,195.99 c -0.99,-3.71 1.79,-8.44 6.03,-7.5 3.17,0.25 3.78,3.62 3.99,6.16 -2.79,0.08 -5.59,0.08 -8.38,0.12 0.58,1.2 0.44,3.02 1.85,3.65 2,1.07 4.22,-0.09 6.24,-0.46 -1.63,4.21 -9.62,2.74 -9.73,-1.97 m 1.58,-2.62 c 2.29,0.03 4.59,0.01 6.89,-0.09 -0.87,-1.22 -1.31,-3.73 -3.36,-3.33 -2.11,-0.4 -2.85,1.96 -3.53,3.42 z"
       id="path29"
       style="fill:#0000ff" />
    <path
       fill="#00417a"
       opacity="1"
       d="m 130.17,189.08 c 2.14,-0.89 5.18,-1.06 6.79,0.92 1.66,1.86 1.49,4.65 0.96,6.92 -1.26,4.07 -7.82,4.7 -9.79,0.9 -0.97,-2.91 -0.98,-7.03 2.04,-8.74 m 1.15,1.24 c -2.18,1.31 -2.3,4.49 -1.4,6.62 0.92,2.53 5.1,2.54 5.97,-0.04 1.73,-3.04 -0.49,-8.63 -4.57,-6.58 z"
       id="path30"
       style="fill:#0000ff" />
    <path
       fill="#00417a"
       opacity="1"
       d="m 168.32,191.11 c 1.08,-3.32 6.73,-3.66 8.39,-0.75 0.71,3.18 0.22,6.5 0.38,9.75 -1.68,-0.79 -3.39,-0.24 -5.09,0.1 -2.5,0.68 -4.87,-2.52 -3.41,-4.68 1.51,-2.35 4.66,-1.82 7.05,-2.26 -0.69,-1.2 -0.71,-3.52 -2.65,-3.28 -1.63,0 -3.12,0.73 -4.67,1.12 m 2.84,4.07 c -1.79,0.82 -1.2,3.98 0.88,3.72 2.42,0.28 3.37,-2.2 3.37,-4.2 -1.43,0.09 -2.85,0.25 -4.25,0.48 z"
       id="path31"
       style="fill:#0000ff" />
    <path
       fill="#00417a"
       opacity="1"
       d="m 179.63,192.05 c -0.44,-3.9 5.78,-4.94 7.32,-1.69 -1.66,-0.18 -3.32,-0.27 -4.98,-0.28 -2.03,2.23 1.49,3.23 2.98,4.14 1.82,0.6 2.82,2.83 1.55,4.43 -1.39,2.21 -4.31,1.5 -6.48,1.42 -0.28,-0.51 -0.83,-1.54 -1.1,-2.05 1.95,0.36 4.27,1.59 6.06,0.08 0.85,-3.62 -5.05,-2.74 -5.35,-6.05 z"
       id="path32"
       style="fill:#0000ff" />
    <path
       fill="#00417a"
       opacity="1"
       d="m 191.04,200.09 c -4.04,-3.2 -3.12,-11.88 2.97,-11.66 3.43,-0.09 4.75,3.33 4.64,6.22 -2.84,0.08 -5.68,0.08 -8.52,0.14 0.72,1.5 1.03,3.61 2.99,4.03 1.83,0.2 3.59,-0.53 5.37,-0.83 -0.95,3.25 -4.95,2.02 -7.45,2.1 m -0.86,-6.76 c 2.26,0.08 4.52,0.08 6.78,0.04 -0.54,-1.23 -1.11,-2.44 -1.69,-3.65 -2.47,-0.04 -4.42,1.17 -5.09,3.61 z"
       id="path33"
       style="stroke:#0000ff" />
    <path
       fill="#00417a"
       opacity="1"
       d="m 212.6,190.85 c 1.73,-2.72 6.34,-3.37 8.47,-0.86 1.05,3.47 0.49,7.22 0.28,10.78 -0.43,-0.4 -1.29,-1.2 -1.73,-1.59 -1.37,0.73 -2.92,1.52 -4.51,0.99 -2.73,-0.46 -3.19,-4.64 -0.79,-5.85 1.76,-0.88 3.81,-0.7 5.71,-0.92 -0.33,-1.17 -0.68,-2.34 -1.03,-3.51 -2.15,0.24 -4.27,0.62 -6.4,0.96 m 2.13,6.18 c -0.3,1.93 2.58,2.5 3.78,1.33 1.47,-0.57 1.16,-2.39 1.61,-3.59 -1.79,0.29 -5.46,-0.47 -5.39,2.26 z"
       id="path34"
       style="fill:#0000ff" />
  </g>
  <g
     id="#00477dff">
    <path
       fill="#00477d"
       opacity="1"
       d="m 26.99,199.83 c -4.77,-2.44 -3.12,-12.01 2.83,-11.39 3.36,-0.02 4.71,3.46 4.42,6.32 -2.77,-0.02 -5.55,-0.04 -8.32,0 0.65,1.36 0.7,3.37 2.43,3.88 1.99,0.7 4.12,-0.5 6.14,-0.56 -1.38,2.75 -5.02,2.49 -7.5,1.75 m -1.14,-6.46 c 2.26,0.04 4.52,0.04 6.78,0 -0.51,-1.15 -1.02,-2.28 -1.55,-3.41 -0.83,0 -2.47,0.01 -3.29,0.01 -0.66,1.13 -1.3,2.26 -1.94,3.4 z"
       id="path35"
       style="fill:#0000ff" />
    <path
       fill="#00477d"
       opacity="1"
       d="m 201.64,188.13 c 1.5,3.69 4.71,-1.44 7.12,0.92 2.87,2.96 1.14,7.88 1.39,11.63 -3.7,-1.93 0.01,-7.32 -2.56,-10.27 -1.74,-1.19 -3.25,0.58 -4.65,1.44 0.05,2.75 0.05,5.51 0.06,8.27 -0.5,0 -1.5,0 -2,0 0.27,-3.99 -0.65,-8.14 0.64,-11.99 z"
       id="path36"
       style="fill:#0000ff" />
  </g>
  <g
     id="#09487eff">
    <path
       fill="#09487e"
       opacity="1"
       d="m 90.53,191.11 c 1.26,-3.29 6.49,-3.6 8.5,-0.94 0.69,3.42 0.29,6.94 0.26,10.39 -0.96,-0.82 -1.93,-1.62 -2.9,-2.42 1.47,-0.66 2.17,-3.91 -0.32,-3.29 -1.76,-0.31 -2.98,0.83 -4.04,2.03 0.32,0.41 0.96,1.21 1.28,1.61 1.29,0.36 2.57,0.79 3.74,1.48 -1.02,0.07 -3.04,0.21 -4.05,0.28 -2.86,-0.56 -3.32,-4.95 -0.67,-6.11 1.81,-0.57 3.73,-0.6 5.6,-0.83 -0.36,-1.03 -0.69,-2.07 -1.18,-3.04 -2.11,-0.67 -4.18,0.4 -6.22,0.84 z"
       id="path37"
       style="fill:#0000ff" />
  </g>
  <g
     id="#f1f5f8ff">
    <path
       fill="#f1f5f8"
       opacity="1.00"
       d=" M 25.85 193.37 C 26.49 192.23 27.13 191.10 27.79 189.97 C 28.61 189.97 30.25 189.96 31.08 189.96 C 31.61 191.09 32.12 192.22 32.63 193.37 C 30.37 193.41 28.11 193.41 25.85 193.37 Z"
       id="path38" />
  </g>
</svg>
